<svg width="49" height="48" viewBox="0 0 49 48" fill="none" xmlns="http://www.w3.org/2000/svg">
<g id="Group 1973345327">
<g id="Group 1973345405">
<g id="Group 1973345404">
<g id="Group 1973345382">
<rect id="Rectangle 293030979" x="4.76172" y="17.4355" width="31.4917" height="19.2618" rx="1.3125" transform="rotate(-20.14 4.76172 17.4355)" fill="#FCE9CE"/>
<path id="Subtract" d="M41.4167 25.6782C41.8025 26.9294 41.2017 28.2253 40.0749 28.5727C38.9481 28.9202 37.7219 28.1875 37.3362 26.9363C36.9504 25.6852 37.5511 24.3893 38.6779 24.0418C39.8047 23.6944 41.0309 24.4271 41.4167 25.6782Z" fill="#FCE9CE"/>
</g>
<g id="Group 1973345383">
<rect id="Rectangle 293030979_2" x="4.38477" y="17.376" width="36.1052" height="19.8885" rx="1.3125" transform="rotate(-9.73 4.38477 17.376)" fill="#F0C992"/>
<path id="Subtract_2" fill-rule="evenodd" clip-rule="evenodd" d="M11.1578 35.1526C11.3863 36.485 10.4914 37.7504 9.15893 37.9789C7.82649 38.2074 6.56112 37.3124 6.33264 35.98C6.10416 34.6475 6.9991 33.3822 8.33154 33.1537C9.66399 32.9252 10.9294 33.8202 11.1578 35.1526Z" fill="#F0C992"/>
</g>
<g id="Group 1973345393">
<g id="Group 1973345385">
<g id="Group 1973345379">
<rect id="Rectangle 293030979_3" x="5.1416" y="16.335" width="38.7188" height="21.3281" rx="1.125" fill="#9F2089"/>
<path id="Subtract_3" fill-rule="evenodd" clip-rule="evenodd" d="M9.76522 18.4482H39.3271V18.4487C39.3271 19.7821 40.4536 20.8631 41.8431 20.8631H41.8438V33.2373C41.8435 33.2373 41.8433 33.2373 41.8431 33.2373C40.4537 33.2373 39.3274 34.3181 39.3271 35.6514H9.76522C9.76498 34.3183 8.63904 33.2377 7.25 33.2373V20.8631C8.63918 20.8628 9.76522 19.7819 9.76522 18.4487V18.4482Z" fill="#FFEDC9"/>
</g>
</g>
<circle id="Ellipse 1267" cx="24.502" cy="26.999" r="8.20312" fill="#9F2089"/>
<path id="Vector" d="M27.9003 25.1745C27.9273 25.2626 27.9419 25.3535 27.9435 25.4449C27.9491 25.5148 27.9389 25.585 27.9137 25.6513C27.8884 25.7176 27.8486 25.7788 27.7965 25.8312C27.7506 25.8734 27.6953 25.9065 27.6343 25.9284C27.5732 25.9504 27.5076 25.9607 27.4418 25.9586H26.3389C26.3225 26.3579 26.1978 26.7476 25.9756 27.0943C25.7444 27.4448 25.413 27.7341 25.0154 27.9325C24.534 28.1676 23.9981 28.2998 23.4498 28.3188L27.005 30.1382C27.0441 30.1571 27.0782 30.1832 27.1052 30.2148C27.1322 30.2464 27.1515 30.2826 27.1617 30.3213C27.1719 30.36 27.1728 30.4001 27.1645 30.4391C27.1561 30.4781 27.1386 30.5151 27.1131 30.5477C26.9572 30.7451 26.7431 30.9002 26.4946 30.9957C26.2446 31.0886 25.9715 31.1206 25.7031 31.0884C25.4734 31.0695 25.25 31.0104 25.0457 30.9146C24.8588 30.8127 24.6823 30.6964 24.5181 30.567L21.7068 28.284C21.6664 28.1837 21.6459 28.0778 21.6462 27.9712C21.6361 27.8673 21.6562 27.7629 21.7047 27.6681C21.7533 27.5734 21.8285 27.4914 21.923 27.4304H22.788C23.3141 27.4567 23.8332 27.3127 24.2499 27.0248C24.4283 26.8978 24.5737 26.7378 24.676 26.5557C24.7783 26.3736 24.8351 26.1738 24.8424 25.9702H21.2137C21.1707 25.9056 21.1359 25.837 21.1099 25.7655C21.0768 25.6704 21.0593 25.5715 21.058 25.4719C21.0527 25.402 21.0629 25.3319 21.0882 25.2656C21.1134 25.1993 21.1532 25.1381 21.2051 25.0856C21.2523 25.0456 21.308 25.0144 21.3689 24.9938C21.4298 24.9732 21.4947 24.9637 21.5597 24.9659H24.903C24.8666 24.6735 24.7791 24.388 24.6435 24.1199H21.2137C21.1717 24.0482 21.137 23.9732 21.1099 23.8959C21.0751 23.7958 21.0576 23.6916 21.058 23.5869C21.0529 23.517 21.0633 23.4469 21.0885 23.3807C21.1138 23.3144 21.1534 23.2532 21.2051 23.2006C21.2501 23.1567 21.3049 23.1216 21.366 23.0977C21.4271 23.0738 21.493 23.0614 21.5597 23.0615H27.7878C27.8413 23.1261 27.8795 23.1997 27.9003 23.2778C27.9265 23.3701 27.941 23.4647 27.9435 23.5598C27.9529 23.6347 27.9446 23.7104 27.9193 23.7823C27.894 23.8541 27.8522 23.9205 27.7965 23.977C27.7504 24.0187 27.695 24.0513 27.6339 24.0725C27.5728 24.0938 27.5073 24.1034 27.4418 24.1006H26.0405C26.1517 24.3752 26.2342 24.6584 26.287 24.9466H27.7878C27.8344 25.0187 27.8721 25.0951 27.9003 25.1745Z" fill="white"/>
</g>
</g>
</g>
</g>
</svg>
