<svg width="49" height="48" viewBox="0 0 49 48" fill="none" xmlns="http://www.w3.org/2000/svg">
<g id="Group 1973345329">
<g id="Group 1973345407">
<g id="Group 1973345406">
<g id="Group 1973341347">
<g id="Group 1973345380">
<path id="Vector 1078" d="M26.3724 9.5625L13.8896 13.5673L26.3255 17.5193L38.7613 13.5673L26.3724 9.5625Z" fill="#FFEDC9"/>
<path id="Vector 1081" d="M38.6836 13.5586L38.7403 27.5359C38.7432 28.2507 38.2953 28.8899 37.6223 29.1312L26.3174 33.1846V17.4961L38.6836 13.5586Z" fill="#D8A869"/>
<path id="Vector 1083" d="M33.5967 15.1992V17.4826L31.1727 18.4136V15.9896L33.5967 15.1992Z" fill="#C38566"/>
<path id="Vector 1082" d="M13.8896 13.5586V27.541C13.8896 28.2534 14.337 28.889 15.0076 29.1295L26.3174 33.1846V17.4961L13.8896 13.5586Z" fill="#F4D79D"/>
<path id="Rectangle 293030958" d="M21.6566 11.0391L33.5967 15.2019L31.1727 15.9923L19.4746 11.7056L21.6566 11.0391Z" fill="#C38566"/>
</g>
<path id="Vector" d="M5.79251 32.8015L18.0339 24.6885C18.6809 24.2462 19.4702 24.7952 19.4702 25.6493V30.7885H30.6893C37.2888 30.7885 40.058 25.0697 41.2097 20.815C41.3391 20.327 41.999 20.4337 41.999 20.9675V24.2615C41.999 31.2918 37.0559 36.98 30.9611 36.98H19.4961L19.4702 36.9343V42.1345C19.4702 42.9886 18.6809 43.5376 18.0339 43.0953L5.79251 34.9518C5.06786 34.4943 5.06786 33.259 5.79251 32.8015Z" fill="#9F2089"/>
</g>
</g>
</g>
</g>
</svg>
