<svg width="49" height="48" viewBox="0 0 49 48" fill="none" xmlns="http://www.w3.org/2000/svg">
<g id="Group 1973345328">
<g id="Group 1973345412">
<g id="Group 1973345435">
<g id="Group 1973345433">
<path id="Vector" d="M34.6862 23.7734C34.9144 23.0745 34.8911 22.3172 34.6202 21.6336L30.3607 10.8939C29.8113 9.50898 28.1394 8.96364 26.8792 9.75727L17.1075 15.9136C16.4855 16.3055 16.0198 16.9027 15.7915 17.6012L9.93504 35.5287C9.70909 36.2212 10.0872 36.9659 10.7797 37.1919L27.1704 42.5395C27.8624 42.7655 28.6066 42.3874 28.8331 41.6954L34.6868 23.7739L34.6862 23.7734ZM27.3951 14.0656C28.6087 14.4614 29.2715 15.766 28.8756 16.9796C28.4798 18.1932 27.1752 18.856 25.9616 18.4602C24.748 18.0643 24.0852 16.7598 24.4811 15.5462C24.8769 14.3326 26.1815 13.6698 27.3951 14.0656Z" fill="#D8A869"/>
<path id="Vector_2" d="M38.4693 19.0737C38.3574 18.3466 37.9952 17.6819 37.4443 17.1939L28.7969 9.53169C27.682 8.54351 25.9438 8.81125 25.1773 10.0886L19.2344 19.9919C18.8563 20.6224 18.7102 21.3648 18.8216 22.0919L21.6844 40.7325C21.7948 41.4524 22.4682 41.9465 23.1887 41.8357L40.2285 39.2124C40.948 39.1015 41.4421 38.4286 41.3312 37.7087L38.4693 19.0737ZM27.5829 13.6995C28.8445 13.5054 30.0248 14.3704 30.2189 15.632C30.4131 16.8935 29.548 18.0738 28.2865 18.268C27.0249 18.4621 25.8446 17.5971 25.6505 16.3355C25.4563 15.074 26.3214 13.8937 27.5829 13.6995Z" fill="#9F2089"/>
<path id="Vector_3" d="M31.3571 11.1487L31.3555 11.1057C31.3213 9.71799 30.7552 8.41864 29.7614 7.44732C28.766 6.47447 27.4508 5.93848 26.0585 5.93848C23.1358 5.93848 20.7578 8.31645 20.7578 11.2391C20.7578 11.8088 20.8493 12.3714 21.0291 12.9125L21.0347 12.9293L21.8855 12.5328L21.9315 12.5114C21.8007 12.0944 21.7409 11.6795 21.7409 11.2391C21.7409 8.85857 23.6774 6.92155 26.0585 6.92155C28.0885 6.92155 29.8273 8.32411 30.2682 10.2841C30.283 10.3495 30.2963 10.4154 30.3081 10.4819C30.3295 10.6025 30.3438 10.7246 30.3551 10.8472C30.3571 10.8712 30.3587 10.8947 30.3602 10.9187C30.3643 10.9714 30.3694 11.024 30.3714 11.0766V11.0904C30.374 11.14 30.3755 11.189 30.3755 11.2391C30.3755 11.3607 30.3694 11.4808 30.3597 11.6003C30.283 12.5379 29.9095 13.4081 29.2816 14.1091C29.1947 14.2062 29.1038 14.3007 29.0077 14.3907C29.0005 14.3973 28.9929 14.4034 28.9857 14.4101C28.6235 14.7442 28.2014 15.0161 27.7492 15.2092C27.6322 15.2593 27.5137 15.3053 27.3931 15.3446C27.3588 15.3558 27.3246 15.3656 27.2904 15.3758C26.8934 15.4948 26.4964 15.5556 26.0861 15.5561C26.0595 15.6701 26.0426 15.7871 26.038 15.9061C26.038 15.9179 26.038 15.9302 26.038 15.9419C26.037 15.9899 26.0365 16.038 26.039 16.087C26.0426 16.1488 26.0488 16.2112 26.058 16.2735C26.0656 16.3241 26.0769 16.3737 26.0886 16.4227C26.0988 16.4636 26.1101 16.504 26.1223 16.5443C26.7574 16.5407 27.3471 16.4191 27.9383 16.1943C27.9424 16.1928 27.9459 16.1913 27.9495 16.1897C28.0798 16.1402 28.207 16.0845 28.3322 16.0252C28.8069 15.7999 29.2438 15.5061 29.6351 15.1474C29.6449 15.1387 29.6546 15.1305 29.6638 15.1218C29.7603 15.0319 29.8533 14.9394 29.9422 14.8434C30.3321 14.4239 30.6489 13.9471 30.8834 13.4306C30.983 13.2114 31.0674 12.9845 31.1363 12.752C31.1624 12.6636 31.1874 12.5747 31.2094 12.4848C31.2656 12.2513 31.3044 12.0142 31.3285 11.7766C31.3463 11.6014 31.3576 11.4251 31.3581 11.2498C31.3581 11.2463 31.3581 11.2422 31.3581 11.2386C31.3581 11.2084 31.3571 11.1783 31.356 11.1487H31.3571Z" fill="#616173"/>
<g id="Group 1973345435_2">
<rect id="Rectangle 293030966" width="2.67609" height="15.3875" rx="1.33805" transform="matrix(-0.707107 -0.707107 -0.707107 0.707107 36.9697 25.9219)" fill="white"/>
<circle id="Ellipse 1251" cx="1.5053" cy="1.5053" r="1.5053" transform="matrix(-0.707107 -0.707107 -0.707107 0.707107 35.9053 33.6055)" fill="white"/>
<circle id="Ellipse 1252" cx="1.5053" cy="1.5053" r="1.5053" transform="matrix(-0.707107 -0.707107 -0.707107 0.707107 29.2822 26.9814)" fill="white"/>
</g>
</g>
</g>
</g>
</g>
</svg>
